<?xml version="1.0" encoding="utf-8"?>
<!-- Generator: Adobe Illustrator 19.2.1, SVG Export Plug-In . SVG Version: 6.00 Build 0)  -->
<!DOCTYPE svg PUBLIC "-//W3C//DTD SVG 1.1//EN" "http://www.w3.org/Graphics/SVG/1.1/DTD/svg11.dtd">
<svg version="1.1" id="Layer_1" xmlns="http://www.w3.org/2000/svg" xmlns:xlink="http://www.w3.org/1999/xlink" x="0px" y="0px"
	 width="465.3px" height="463.3px" viewBox="0 0 465.3 463.3" style="enable-background:new 0 0 465.3 463.3;" xml:space="preserve"
	>
<style type="text/css">
	.st0{fill:#F7BE58;}
</style>
<path id="Layer_1_1_" class="st0" d="M402.7,0H62.6C28,0,0,28,0,62.6v338.1c0,34.6,28,62.6,62.6,62.6h340.1
	c34.6,0,62.6-28,62.6-62.6V62.6C465.3,28,437.3,0,402.7,0L402.7,0z M59.5,30h346.7c12.7,0.1,19.5,15.1,11.4,24.9L266.7,237.5
	c-7.5,9.1-21.1,14.6-36.4,14.6H230c-15.4-0.1-29.1-5.6-36.5-14.9L46.5,57.8c-9-11-1.4-27.6,12.8-27.8L59.5,30L59.5,30z M41.1,98.7
	l119.5,145.8c1,1.2,1,2.9,0,4L41.1,390.7c-3.8,4.5-11.1,1.8-11.1-4v-284C30,96.8,37.4,94.2,41.1,98.7z M65.2,432.5
	c-15.3-0.7-3.2-20.1-1.6-22.1l117.6-139.8c1.1-1.4,3.1-1.6,4.6-0.7c12.3,7.8,27.7,12.2,44,12.2h0.5c19.2,0,37.1-6,50.3-16.4
	c1.6-1.2,3.8-1,5,0.6l106.8,140c1.7,2.2,3.6,4.3,5.4,6.4c6,6.7,8.5,20.6-4.5,20.6C393.3,433.3,67.7,432.6,65.2,432.5L65.2,432.5z
	 M435.3,387.6v0.4c-0.4,7.5-12.2,7.5-16.8,1.5L304.9,242.2c-0.9-1.2-0.9-2.8,0.1-3.9L421.3,97.5c4.7-5.7,14-2.4,14,5V387.6z"/>
</svg>
