<?xml version="1.0" encoding="utf-8"?>
<!-- Generator: Adobe Illustrator 19.2.1, SVG Export Plug-In . SVG Version: 6.00 Build 0)  -->
<!DOCTYPE svg PUBLIC "-//W3C//DTD SVG 1.1//EN" "http://www.w3.org/Graphics/SVG/1.1/DTD/svg11.dtd">
<svg version="1.1" id="Layer_1" xmlns="http://www.w3.org/2000/svg" xmlns:xlink="http://www.w3.org/1999/xlink" x="0px" y="0px"
	 width="465.3px" height="463.3px" viewBox="0 0 465.3 463.3" style="enable-background:new 0 0 465.3 463.3;" xml:space="preserve"
	>
<style type="text/css">
	.st0{fill:#F7BE58;}
</style>
<path class="st0" d="M231.6,463.4H53.2c-14.8,0-27.4-5.4-37.8-15.8c-8.5-8.5-13.6-18.9-15-31c-0.3-2.7-0.4-5.5-0.4-8.3V53.2
	c0-14.7,5.5-27.3,15.8-37.7c9-9,20-14.1,32.7-15.3C50.2,0,52-0.1,53.7-0.1h355.7c14.9,0,27.7,5.3,38.2,15.8
	c8.9,8.9,14,19.7,15.3,32.2c0.2,1.8,0.3,3.6,0.3,5.4v356.5c0,13.1-4.3,24.6-12.7,34.5c-8.5,10.1-19.4,16.1-32.4,18.3
	c-2.8,0.5-5.8,0.6-8.6,0.6h-99.9C283.6,463.4,257.6,463.4,231.6,463.4L231.6,463.4z M369.7,196.3c10,42.5,3.5,81.9-21.6,117.5
	s-59.9,55.5-103.3,60c-26.1,2.7-51.1-1.9-74.7-13.3C146,348.9,126.4,332,112,309.4c-22.4-35-28.2-72.8-18.5-113.1h-40v195.8
	c-0.1,7.9,5.4,15.7,14.7,17.4c1.6,0.3,3.2,0.2,4.9,0.2h317c0.8,0,1.7,0.1,2.5,0c1.4-0.2,2.9-0.3,4.3-0.7c7.7-2.2,12.8-9,12.8-17.1
	V196.1C396.2,196.3,383,196.3,369.7,196.3L369.7,196.3z M320.6,231.8c0-49-39.6-89.1-89.1-89c-50,0-89,40.7-89,88.9
	c0,49.3,40.2,89.1,89,89.1C279.8,320.9,320.5,281.8,320.6,231.8z M409.7,98.3v-27c-0.1-9.7-7.9-17.6-17.6-17.6
	c-17.9-0.1-35.8-0.1-53.7,0c-9.7,0-17.6,7.9-17.6,17.6c-0.1,17.9-0.1,35.8,0,53.7c0,9.7,7.9,17.6,17.6,17.6h53.7
	c1.5,0,3-0.2,4.5-0.6c7.8-2.1,13.1-9,13.2-17C409.7,116.1,409.7,107.2,409.7,98.3z"/>
</svg>
