<?xml version="1.0" encoding="utf-8"?>
<!-- Generator: Adobe Illustrator 21.0.2, SVG Export Plug-In . SVG Version: 6.00 Build 0)  -->
<!DOCTYPE svg PUBLIC "-//W3C//DTD SVG 1.1//EN" "http://www.w3.org/Graphics/SVG/1.1/DTD/svg11.dtd">
<svg version="1.1" id="Layer_1" xmlns="http://www.w3.org/2000/svg" xmlns:xlink="http://www.w3.org/1999/xlink" x="0px" y="0px"
	 width="1382.8px" height="906.1px" viewBox="0 0 1382.8 906.1" style="enable-background:new 0 0 1382.8 906.1;"
	 xml:space="preserve">
<style type="text/css">
	.st0{fill:#F7BE58;}
</style>
<path class="st0" d="M844.8,419.2l-1.7,1.7c1.7,5,3.3,9.9,1.7,16.5c-1.7,6.6-1.7,11.6-3.3,14.9c-1.7,8.3-3.3,18.2-6.6,28.1
	l-8.3,34.7c0,0-6.6,23.1-9.9,36.3l-9.9,34.7c-1.7,5-3.3,11.6-6.6,18.2c-3.3,6.6-5,13.2-8.3,21.5l1.7,1.7c3.3-3.3,5-5,8.3-5
	c3.3-1.7,6.6-1.7,9.9-1.7c5,0,11.6,0,18.2,1.7c6.6,1.7,11.6,3.3,16.5,6.6c5,3.3,9.9,8.3,13.2,13.2c3.3,5,5,9.9,6.6,16.5
	c0,1.7,0,5-1.7,9.9c-1.7,6.6-1.7,11.6-3.3,16.5c-1.7,3.3-3.3,8.3-5,13.2c-1.7,6.6-5,11.6-6.6,14.9c-1.7,1.7-3.3,5-6.6,9.9
	c-3.3,5-5,9.9-9.9,14.9l-9.9,14.9c-3.3,3.3-5,6.6-6.6,6.6c-1.7,0-1.7,0-1.7-1.7c0,0,0-1.7-1.7-1.7c-1.7,0-3.3,1.7-5,3.3
	s-5,3.3-6.6,5h1.7v-1.7l-5-1.7c0,0-3.3-1.7-5,0c-1.7,0-1.7,0-1.7,1.7l-1.7,1.7c-1.7,0-3.3,0-3.3-1.7l-3.3-3.3l-3.3-3.3
	c-1.7-1.7-3.3-3.3-5-6.6c-1.7-1.7-3.3-5-5-8.3s-1.7-5-1.7-6.6s0-5,1.7-8.3l3.3-6.6l3.3,3.3c0,1.7,1.7,3.3,1.7,3.3
	c0,1.7,1.7,1.7,1.7,1.7h3.3c1.7,0,3.3-1.7,5-5l6.6-9.9l6.6-11.6l5-9.9c3.3-6.6,5-13.2,8.3-21.5c1.7-8.3,5-14.9,6.6-19.8l-1.7-6.6
	c-1.7,0-3.3,1.7-3.3,3.3c-1.7,1.7-1.7,5-5,5c-5,1.7-6.6,5-9.9,6.6l-5,8.3h-3.3c0,1.7,0,3.3-1.7,6.6s-3.3,6.6-6.6,9.9l-6.6,9.9
	c-1.7,3.3-3.3,6.6-5,8.3c1.7,1.7,3.3,1.7,3.3,0l-6.6,6.6c-1.7,3.3-3.3,3.3-5,5h-14.9c-1.7,0-3.3-1.7-6.6-5l-6.6-9.9
	c-1.7-3.3-5-8.3-8.3-14.9c0-1.7,0-6.6,1.7-11.6c1.7-5,3.3-11.6,5-18.2s3.3-11.6,5-16.5l1.7-8.3c5-14.9,9.9-31.4,14.9-47.9l14.9-52.8
	c5-18.2,9.9-34.7,14.9-51.2c5-16.5,9.9-31.4,13.2-44.6c1.7-5,3.3-9.9,5-16.5c1.7-6.6,3.3-11.6,6.6-16.5c1.7-1.7,3.3-1.7,6.6-1.7h5
	c0,0,1.7,0,3.3,1.7l5,5c1.7,1.7,3.3,5,6.6,8.3C844.8,417.6,844.8,419.2,844.8,419.2L844.8,419.2z M995,681.7c-1.7,1.7-1.7,3.3-1.7,5
	v8.3c0,0,0,5-1.7,8.3c0,3.3-1.7,5-5,6.6h1.7c0,0,1.7,0,1.7,1.7s-1.7,1.7-1.7,3.3l-3.3,3.3c-1.7,1.7-1.7,5-1.7,8.3
	c-3.3,1.7-8.3,5-11.6,9.9l-11.6,11.6v3.3l-3.3,3.3c-3.3,1.7-6.6,3.3-9.9,3.3c-3.3,1.7-6.6,1.7-8.3,1.7c-8.3,0-14.9-1.7-19.8-5
	s-9.9-8.3-14.9-14.9c-3.3-5-6.6-11.6-9.9-18.2c-1.7-6.6-3.3-13.2-3.3-16.5v-13.2c0,0,1.7-11.6,3.3-16.5c1.7-5,1.7-8.3,3.3-11.6
	c1.7-3.3,1.7-5,1.7-6.6c5-19.8,9.9-34.7,14.9-47.9v-6.6c1.7,0,1.7-1.7,1.7-3.3s1.7-3.3,3.3-5c1.7,0,3.3,0,5-1.7l5-1.7
	c5,0,11.6,1.7,18.2,6.6c6.6,5,9.9,9.9,9.9,16.5c0,1.7,0,1.7-1.7,3.3l-1.7,5c-1.7,5-3.3,13.2-5,24.8c-1.7,9.9-3.3,18.2-6.6,23.1
	c-1.7,1.7-1.7,5-1.7,8.3s-1.7,6.6-1.7,8.3c-3.3,9.9-5,16.5-6.6,19.8c-1.7,5-1.7,9.9,0,14.9c9.9-5,21.5-11.6,31.4-18.2
	C978.5,696.5,986.7,688.3,995,681.7L995,681.7z M978.5,521.6c-1.7,3.3-1.7,5-1.7,8.3s1.7,6.6,1.7,9.9s0,5-1.7,6.6s-5,3.3-9.9,3.3
	c-3.3,0-6.6,0-9.9-1.7c-3.3-1.7-6.6-3.3-8.3-3.3V543c0,0,0-1.7-1.7-1.7c-3.3-1.7-6.6-5-8.3-9.9l-5-13.2c-1.7-1.7-1.7-5-1.7-6.6
	c0-3.3,0-5-1.7-8.3h11.6c3.3,0,5,0,8.3-1.7l6.6-1.7l6.6-1.7l5,5c1.7,1.7,3.3,3.3,3.3,5c1.7,1.7,1.7,3.3,1.7,6.6
	C975.2,516.6,975.2,518.3,978.5,521.6L978.5,521.6z M1188.1,561.2l-1.7,1.7l-3.3,3.3h3.3v1.7l-1.7,1.7c0,0,1.7,1.7,5,1.7
	c-1.7,3.3-5,5-8.3,8.3s-3.3,6.6-3.3,9.9c-1.7,1.7-3.3,5-6.6,6.6c-1.7,3.3-5,5-6.6,6.6c1.7,1.7,3.3,1.7,3.3,0
	c-3.3,5-6.6,11.6-11.6,19.8c-5,6.6-8.3,13.2-11.6,16.5c-3.3,5-5,9.9-9.9,14.9l-9.9,18.2c-3.3,6.6-6.6,11.6-9.9,16.5l-6.6,11.6
	c-1.7,1.7-3.3,3.3-5,6.6l-5,9.9l-5,9.9c0,0-3.3,6.6-3.3,9.9l-5,9.9c0,0-3.3,6.6-3.3,11.6c0,0-1.7,0-1.7,1.7l-3.3,1.7l-6.6,1.7
	c-3.3,0-8.3,0-11.6-3.3c-3.3-3.3-8.3-6.6-11.6-11.6c-3.3-5-6.6-8.3-8.3-13.2c-1.7-5-3.3-6.6-3.3-8.3v-9.9c0-5,0-13.2-1.7-19.8
	l-1.7-24.8c0,0-1.7-16.5-1.7-23.1c0-8.3,0-16.5-1.7-24.8c0-8.3-1.7-18.2-3.3-28.1l-1.7-3.3c-1.7-1.7-1.7-3.3-1.7-5l-1.7-8.3h13.2
	c0,0,1.7,0,3.3,1.7l6.6,3.3l6.6,5l5,5c1.7,3.3,3.3,6.6,5,11.6l3.3,13.2c0,6.6,0,14.9,1.7,23.1c1.7,8.3,3.3,18.2,6.6,31.4l24.8-36.3
	c0,0,16.5-21.5,24.8-31.4l6.6-6.6l9.9-9.9c3.3-3.3,6.6-6.6,9.9-8.3c3.3-3.3,6.6-5,8.3-6.6s1.7-1.7,1.7-3.3s1.7-1.7,1.7-3.3l9.9-5
	l6.6-3.3c3.3-1.7,5-1.7,5-1.7L1188.1,561.2L1188.1,561.2z M1171.6,602.4l-3.3,3.3l-1.7-1.7L1171.6,602.4z M1290.4,676.7
	c-1.7,1.7-1.7,3.3-1.7,5v8.3c0,0,0,5-1.7,8.3c0,3.3-1.7,5-5,6.6h1.7c1.7,0,1.7,0,1.7,1.7s-1.7,1.7-1.7,3.3l-3.3,3.3
	c-1.7,1.7-1.7,5-1.7,8.3c-3.3,1.7-8.3,5-11.6,9.9l-11.6,11.6v3.3l-3.3,3.3c-3.3,1.7-6.6,3.3-9.9,3.3c-3.3,1.7-6.6,1.7-8.3,1.7
	c-8.3,0-14.9-1.7-19.8-5c-5-3.3-9.9-8.3-14.9-14.9c-3.3-5-6.6-11.6-9.9-18.2c-1.7-6.6-3.3-13.2-3.3-16.5v-13.2
	c0,0,1.7-11.6,3.3-16.5c1.7-5,1.7-8.3,3.3-11.6s1.7-5,1.7-6.6c5-19.8,9.9-34.7,14.9-47.9v-6.6c1.7,0,1.7-1.7,1.7-3.3s1.7-3.3,3.3-5
	c1.7,0,3.3,0,5-1.7l5-1.7c5,0,11.6,1.7,18.2,6.6c6.6,5,9.9,9.9,9.9,16.5c0,1.7,0,1.7-1.7,3.3l-1.7,5c-1.7,5-3.3,13.2-5,24.8
	c-1.7,9.9-3.3,18.2-6.6,23.1c-1.7,1.7-1.7,5-1.7,8.3s-1.7,6.6-1.7,8.3c-3.3,9.9-5,16.5-6.6,19.8c-1.7,5-1.7,9.9,0,14.9
	c9.9-5,21.5-11.6,31.4-18.2C1275.6,691.6,1283.8,683.3,1290.4,676.7L1290.4,676.7z M1275.6,515c-1.7,3.3-1.7,5-1.7,8.3
	s1.7,6.6,1.7,9.9s0,5-1.7,6.6s-5,3.3-9.9,3.3c-3.3,0-6.6,0-9.9-1.7s-6.6-3.3-8.3-3.3v-1.7c0,0,0-1.7-1.7-1.7c-3.3-1.7-6.6-5-8.3-9.9
	l-5-13.2c-1.7-1.7-1.7-5-1.7-6.6c0-3.3,0-5-1.7-8.3h11.6c3.3,0,5,0,8.3-1.7l6.6-1.7l6.6-1.7l5,5c1.7,1.7,3.3,3.3,3.3,5
	c1.7,1.7,1.7,3.3,1.7,6.6C1270.6,510,1272.3,513.3,1275.6,515L1275.6,515z M829.9,158.5c0,0,3.3,1.7,9.9,3.3l1.7,1.7l-1.7,5
	c0,0,0,1.7,1.7,5l-3.3,16.5l1.7,1.7v5l-3.3,6.6l1.7,3.3c-1.7,13.2-6.6,36.3-14.9,72.6c-1.7,9.9-3.3,18.2-6.6,24.8l1.7,1.7
	c-3.3,8.3-5,13.2-6.6,16.5v1.7h1.7v3.3c-1.7,1.7-3.3,5-3.3,9.9l1.7,1.7l-9.9,33h-3.3v3.3c1.7,0,1.7,0,3.3,1.7
	c-3.3,9.9-5,14.9-6.6,18.2l1.7,3.3c-3.3,9.9-5,16.5-8.3,23.1c0,3.3,1.7,6.6,1.7,8.3h-1.7v-3.3H787c-1.7,0-1.7,0-1.7,1.7
	c0,1.7,1.7,3.3,3.3,3.3l-6.6,18.2l1.7,5c0,3.3-1.7,5-5,6.6c0,3.3,1.7,5,3.3,5v1.7h-3.3c-3.3,0-5-14.9-5-42.9v-5
	c0-3.3,0-8.3,1.7-13.2l-1.7-1.7c1.7-23.1,5-38,6.6-41.3c0,0,0-1.7-1.7-3.3c8.3-46.2,18.2-89.1,28.1-128.7v-1.7h-1.7
	c-6.6,14.9-9.9,24.8-13.2,28.1c0,1.7-8.3,18.2-24.8,49.5c-8.3,14.9-13.2,24.8-14.9,31.4c-1.7,0-3.3,0-5,1.7l1.7,1.7v1.7
	c-8.3,8.3-11.6,14.9-11.6,16.5c-3.3,5-6.6,9.9-11.6,18.2c-1.7,0-6.6,6.6-14.9,19.8c-11.6,13.2-23.1,23.1-31.4,28.1
	c-5,1.7-9.9,3.3-14.9,3.3c-13.2-5-19.8-11.6-19.8-18.2c-5-6.6-6.6-11.6-6.6-16.5c0-28.1,21.5-71,61.1-128.7
	c18.2-24.8,38-44.6,61.1-61.1c18.2-13.2,29.7-21.5,36.3-24.8c11.6,0,16.5-3.3,16.5-9.9c5-6.6,9.9-9.9,18.2-8.3
	C825,160.1,826.6,158.5,829.9,158.5L829.9,158.5z M673.1,382.9c5,0,14.9-11.6,29.7-36.3l11.6-13.2c1.7,0,1.7-3.3,3.3-9.9h1.7
	c0,0,0,1.7,1.7,1.7c3.3-6.6,9.9-16.5,19.8-31.4c6.6-13.2,11.6-21.5,13.2-21.5h1.7l1.7,1.7v-1.7l-1.7-6.6
	c6.6-11.6,11.6-18.2,11.6-19.8c3.3,0,5,0,5-1.7c0,0,0-1.7-1.7-5c3.3-8.3,6.6-13.2,11.6-16.5c0-3.3,1.7-5,1.7-5s0,1.7,1.7,1.7
	l1.7-3.3c-1.7-1.7-1.7-3.3-1.7-3.3c-24.8,21.5-42.9,39.6-51.2,54.5c-23.1,29.7-41.3,62.7-54.5,99
	C674.8,376.3,673.1,382.9,673.1,382.9L673.1,382.9z M755.6,295.4c0,0,0,1.7-1.7,3.3h1.7c1.7,0,1.7,0,1.7-1.7v-1.7H755.6z
	 M778.7,414.3v3.3h3.3v-3.3H778.7z M790.3,209.6v3.3h1.7c0,0,0-1.7,1.7-3.3H790.3L790.3,209.6z M791.9,361.5v3.3h1.7L791.9,361.5z
	 M990,155.2c11.6,1.7,16.5,3.3,16.5,8.3s-3.3,9.9-8.3,18.2v1.7H995c-5,0-13.2,9.9-23.1,28.1c-1.7,0-8.3,6.6-21.5,21.5
	c0,3.3-3.3,6.6-9.9,13.2c0,3.3-3.3,9.9-9.9,23.1c-11.6,31.4-19.8,59.4-24.8,84.2c-3.3,6.6-5,23.1-5,47.9
	c-6.6,23.1-13.2,34.7-23.1,34.7c-9.9-6.6-13.2-13.2-13.2-19.8c-9.9-3.3-13.2-9.9-13.2-18.2c5-8.3,8.3-18.2,11.6-29.7
	c5-6.6,6.6-11.6,6.6-16.5c0-1.7,0-11.6-1.7-29.7c0-1.7,1.7-3.3,1.7-3.3c-1.7,0-3.3-5-3.3-13.2v-1.7c0-1.7,0-1.7,1.7-1.7
	c-1.7-3.3-3.3-16.5-1.7-41.3v-6.6c0-1.7,0-3.3-1.7-5l1.7-5v-23.1l3.3-23.1l-1.7-8.3c0-3.3,3.3-6.6,6.6-9.9
	c6.6,5,16.5,11.6,28.1,19.8l3.3,8.3v6.6c-5,14.9-8.3,21.5-8.3,23.1c0,6.6,1.7,9.9,1.7,9.9c-1.7,6.6-3.3,11.6-3.3,18.2v3.3
	c16.5-28.1,24.8-44.6,29.7-47.9C947.1,179.9,970.2,160.1,990,155.2L990,155.2z M1023,211.3l3.3,1.7h11.6l1.7,1.7h1.7
	c9.9,3.3,14.9,11.6,13.2,26.4v1.7c-1.7,8.3-5,16.5-13.2,28.1l-16.5,47.9c-5,13.2-9.9,24.8-16.5,34.7l-3.3,6.6v1.7l-5,9.9v3.3
	c-3.3,1.7-5,3.3-5,5v1.7h1.7v1.7c0,3.3-1.7,5-5,8.3v1.7h1.7v1.7l-3.3,3.3v3.3l3.3,1.7c3.3,0,18.2-8.3,41.3-26.4
	c8.3-5,8.3-5,16.5-8.3h1.7c-3.3,6.6,0,8.3-5,9.9c0,0-3.3,3.3-8.3,9.9c-1.7,0-3.3,1.7-6.6,6.6c-1.7,0-5,3.3-6.6,9.9
	c0,0-5,3.3-11.6,9.9c-3.3,0-5,1.7-6.6,3.3v3.3h-1.7v-1.7h-1.7v1.7c-1.7,5-1.7,8.3-3.3,8.3h-1.7v-1.7l1.7-3.3v-3.3
	c-3.3,0-5,1.7-5,3.3c0,3.3,1.7,5,0,6.6l-3.3,1.7v-1.7l1.7-3.3h-1.7c-1.7,0-1.7,0-1.7,1.7v3.3c-3.3,0-6.6-3.3-8.3-6.6
	c0,1.7-1.7,1.7-3.3,3.3c-8.3-6.6-13.2-14.9-14.9-23.1l1.7-8.3c6.6-42.9,9.9-64.4,11.6-64.4v-1.7c3.3-18.2,8.3-36.3,16.5-52.8
	c3.3-11.6,8.3-19.8,9.9-26.4C1014.8,227.8,1021.4,212.9,1023,211.3L1023,211.3z M1013.1,288.8v1.7V288.8z M1034.6,392.8
	c0,1.7-1.7,3.3-3.3,5v-1.7C1031.3,394.5,1032.9,392.8,1034.6,392.8L1034.6,392.8z M1054.4,151.8l1.7-1.7
	C1054.4,150.2,1054.4,150.2,1054.4,151.8z M1189.7,179.9h3.3v1.7l-1.7,1.7l1.7,3.3l-1.7,3.3c1.7,1.7,1.7,3.3,1.7,5v3.3
	c-1.7,8.3-5,23.1-13.2,42.9c-1.7,16.5-3.3,26.4-8.3,28.1h-1.7c-3.3-1.7-3.3-3.3-3.3-6.6s0-9.9,1.7-19.8l-1.7-3.3h1.7
	c0-11.6-1.7-16.5-5-16.5c-14.9,3.3-28.1,11.6-42.9,26.4c0,0-5,3.3-11.6,9.9c3.3,1.7,18.2,11.6,47.9,29.7
	c11.6,9.9,18.2,16.5,18.2,21.5c3.3,1.7,3.3,3.3,3.3,6.6v1.7c0,6.6-1.7,14.9-6.6,28.1c0,1.7-1.7,6.6-5,14.9c0,0-3.3,5-9.9,13.2
	c-14.9,13.2-28.1,23.1-36.3,26.4c0,1.7,0,1.7-1.7,1.7h-1.7c-11.6,8.3-18.2,13.2-23.1,13.2l-3.3,3.3h-1.7l-5,5c0,0-1.7,0-1.7-1.7
	l-9.9,6.6c-1.7,1.7-5,3.3-9.9,6.6h-1.7c-3.3-3.3-5-6.6-5-13.2c-1.7,0-1.7-1.7-1.7-3.3v-11.6c0-6.6,6.6-19.8,21.5-39.6
	c13.2-14.9,26.4-24.8,38-29.7c3.3-1.7,6.6-3.3,11.6-5c5,0,9.9-1.7,14.9-5v1.7l-18.2,14.9c-6.6,6.6-13.2,16.5-21.5,31.4v3.3
	c14.9-9.9,29.7-24.8,42.9-41.3c5-6.6,6.6-13.2,6.6-18.2c0-5-13.2-13.2-38-23.1c-14.9-6.6-23.1-13.2-23.1-16.5c-1.7,0-1.7,0-1.7-1.7
	c0-6.6,1.7-11.6,5-18.2l-1.7-1.7l1.7-3.3c-1.7-3.3-1.7-6.6-1.7-6.6c1.7-9.9,14.9-28.1,39.6-52.8c13.2-8.3,23.1-13.2,31.4-13.2h1.7
	c8.3,0,13.2,3.3,16.5,9.9l3.3,3.3c1.7-5,3.3-9.9,3.3-13.2C1188.1,183.2,1189.7,181.6,1189.7,179.9L1189.7,179.9z M1123.7,219.5
	l3.3-1.7v-1.7C1125.4,217.9,1123.7,217.9,1123.7,219.5z M1371.3,170c0,0,3.3,1.7,9.9,3.3l1.7,1.7l-1.7,5c0,0,0,1.7,1.7,5l-3.3,16.5
	l1.7,1.7v5l-3.3,6.6l1.7,3.3c-1.7,13.2-6.6,36.3-14.9,72.6c-1.7,9.9-3.3,18.2-6.6,24.8l1.7,1.7c-3.3,8.3-5,13.2-6.6,16.5v1.7h1.7
	v3.3c-1.7,1.7-3.3,5-3.3,9.9l1.7,1.7l-9.9,33h-3.3v3.3c1.7,0,1.7,0,3.3,1.7c-3.3,9.9-5,14.9-6.6,18.2l1.7,3.3
	c-3.3,9.9-5,16.5-8.3,23.1c0,3.3,1.7,6.6,1.7,8.3h-1.7v-3.3h-1.7c-1.7,0-1.7,0-1.7,1.7s1.7,3.3,3.3,3.3l-6.6,18.2l1.7,5
	c0,3.3-1.7,5-5,6.6c0,3.3,1.7,5,3.3,5v1.7h-3.3c-3.3,0-5-14.9-5-42.9v-5c0-3.3,0-8.3,1.7-13.2l-1.7-1.7c1.7-23.1,5-38,6.6-41.3
	c0,0,0-1.7-1.7-3.3c8.3-46.2,18.2-89.1,28.1-128.7V241h-1.7c-6.6,14.9-9.9,24.8-13.2,28.1c0,1.7-8.3,18.2-24.8,49.5
	c-8.3,14.9-13.2,24.8-14.9,31.4c-1.7,0-3.3,0-5,1.7l1.7,1.7v1.7c-8.3,8.3-11.6,14.9-11.6,16.5c-3.3,5-6.6,9.9-11.6,18.2
	c-1.7,0-6.6,6.6-14.9,19.8c-11.6,13.2-23.1,23.1-31.4,28.1c-5,1.7-9.9,3.3-14.9,3.3c-13.2-5-19.8-11.6-19.8-18.2
	c-5-6.6-6.6-11.6-6.6-16.5c0-28.1,21.5-71,61.1-128.7c18.2-24.8,38-44.6,61.1-61.1c18.2-13.2,29.7-21.5,36.3-24.8
	c11.6,0,16.5-3.3,16.5-9.9c5-6.6,9.9-9.9,18.2-8.3C1368,171.7,1369.6,170,1371.3,170L1371.3,170z M1214.5,394.5
	c5,0,14.9-11.6,29.7-36.3l11.6-13.2c1.7,0,1.7-3.3,3.3-9.9h1.7c0,0,0,1.7,1.7,1.7c3.3-6.6,9.9-16.5,19.8-31.4
	c6.6-13.2,11.6-21.5,13.2-21.5h1.7l1.7,1.7v-1.7l-1.7-6.6c6.6-11.6,11.6-18.2,11.6-19.8c3.3,0,5,0,5-1.7c0,0,0-1.7-1.7-5
	c3.3-8.3,6.6-13.2,11.6-16.5c0-3.3,1.7-5,1.7-5s0,1.7,1.7,1.7l1.7-3.3c-1.7-1.7-1.7-3.3-1.7-3.3c-24.8,21.5-42.9,39.6-51.2,54.5
	c-23.1,29.7-41.3,62.7-54.5,99C1216.1,387.9,1214.5,394.5,1214.5,394.5L1214.5,394.5z M1297,307c0,0,0,1.7-1.7,3.3h1.7
	c1.7,0,1.7,0,1.7-1.7V307H1297z M1320.1,425.8v3.3h3.3v-3.3H1320.1z M1333.3,221.2v3.3h1.7c0,0,0-1.7,1.7-3.3H1333.3L1333.3,221.2z
	 M1335,371.4v3.3h1.7L1335,371.4z M905.8,774.1c-29.7,34.7-31.4,34.7-67.7,64.4c-18.2,14.9-38,29.7-59.4,42.9
	c-11.6,6.6-21.5,11.6-34.7,16.5l-5,1.7c0,0-3.3,1.7-5,1.7l-9.9,3.3h-6.6l-5,1.7h-33l-23.1-5l-21.5-9.9c-6.6-5-11.6-8.3-18.2-14.9
	c-5-5-9.9-9.9-13.2-16.5l-11.6-16.5c0,0-6.6-11.6-8.3-18.2c-3.3-6.6-5-11.6-6.6-18.2c-8.3-23.1-13.2-47.9-18.2-71
	c-3.3-23.1-6.6-46.2-8.3-71l-3.3-69.3c0-23.1,0-46.2,1.7-69.3c1.7-46.2,5-92.4,9.9-137c5-46.2,9.9-90.8,16.5-137l5-34.7l3.3-16.5
	l3.3-16.5c3.3-21.5,6.6-44.6,8.3-66V69.3c0,0-1.7-1.7-1.7,0l-1.7,1.7c-31.4,38-59.4,79.2-85.8,123.8c-26.4,44.6-47.9,90.8-69.3,137
	c-19.8,47.9-38,94.1-54.5,141.9L357.9,543l-11.6,34.7l-6.6,16.5l-3.3,8.3l-1.7,5l-1.7,3.3l-1.7,3.3c-3.3,8.3-6.6,14.9-11.6,21.5
	c-3.3,6.6-8.3,13.2-13.2,18.2l-3.3,3.3l-1.7,1.7l-1.7,1.7l-8.3,5c-5,3.3-11.6,5-18.2,6.6c-6.6,1.7-13.2,0-19.8-1.7h-1.7
	c0,0-1.7,0-1.7-1.7c0,0-1.7,0-1.7-1.7l-1.7-1.7l-5-1.7l-1.7-1.7l-1.7-1.7c-5-3.3-9.9-8.3-13.2-14.9l-3.3-5l-1.7-1.7
	c0,0-1.7-1.7-1.7-3.3c-1.7-3.3-3.3-6.6-5-11.6l-1.7-3.3c0-1.7,0-1.7-1.7-3.3c0-1.7-1.7-3.3-1.7-6.6l-1.7-6.6c0,0-1.7-5-1.7-6.6v-6.6
	c0,0,0-5-1.7-6.6V576c-1.7-9.9-1.7-21.5-1.7-31.4c0-21.5,0-42.9,1.7-66h-1.7c0,0,1.7-11.6,1.7-26.4c1.7-13.2,1.7-29.7,3.3-41.3
	c0,0,1.7,0,1.7-1.7c0,0,1.7-6.6,1.7-14.9c1.7-8.3,1.7-19.8,3.3-31.4h1.7c5-46.2,13.2-90.8,18.2-135.3h1.7l1.7-9.9c0-1.7,0-3.3,1.7-5
	c0-1.7,0-3.3,1.7-5c0-1.7,0-3.3,1.7-5v-19.8c0,0,0-1.7,1.7-1.7c0,0,0,1.7-1.7,0c0,0,0-1.7-1.7-1.7v-1.7H239c0,0-1.7,0-1.7,1.7
	l-3.3,3.3l-3.3,5l-1.7,3.3c-1.7,1.7-1.7,3.3-3.3,6.6c-1.7,3.3-5,8.3-6.6,13.2c-5,8.3-9.9,18.2-14.9,28.1
	c-9.9,19.8-19.8,41.3-28.1,59.4s-16.5,36.3-21.5,49.5c-3.3,6.6-5,11.6-6.6,14.9c0,1.7-1.7,3.3-1.7,3.3v1.7
	c-8.3,21.5-14.9,36.3-21.5,51.2s-11.6,28.1-19.8,46.2c1.7-9.9,8.3-28.1-6.6,3.3c-8.3,21.5-21.5,47.9-33,75.9
	c-13.2,28.1-24.8,57.8-36.3,82.5L4.6,681.7c-5,9.9-6.6,9.9-1.7-6.6c3.3-11.6,14.9-49.5,28.1-85.8c13.2-38,24.8-75.9,28.1-85.8
	c3.3-9.9,11.6-33,16.5-51.2c5-18.2,9.9-34.7,8.3-36.3c5-9.9,8.3-21.5,11.6-28.1c3.3-8.3,5-13.2,5-13.2c-1.7,0-13.2,24.8-26.4,56.1
	l-19.8,49.5c0,0-11.6,29.7-16.5,41.3c-3.3,8.3-5,9.9-5,6.6S36,510,41,496.8c0,0,1.7-5,3.3-11.6c1.7-8.3,5-18.2,9.9-33
	c8.3-28.1,21.5-66,38-107.3c8.3-21.5,18.2-42.9,28.1-64.4s19.8-44.6,31.4-67.7l16.5-34.7c1.7-3.3,3.3-6.6,5-8.3l1.7-5l1.7-3.3
	l1.7-3.3c6.6-11.6,13.2-21.5,19.8-31.4s13.2-19.8,21.5-26.4c3.3-3.3,6.6-6.6,11.6-9.9c3.3-3.3,6.6-5,9.9-6.6
	c3.3-1.7,6.6-3.3,9.9-3.3l9.9-1.7h6.6c1.7,0,5,0,6.6,1.7l6.6,1.7l5,3.3l8.3,6.6l6.6,8.3c3.3,6.6,6.6,14.9,9.9,24.8
	c1.7,9.9,3.3,21.5,3.3,34.7c0,11.6,0,24.8-1.7,38v19.8l-1.7,5l-3.3,18.2c-1.7,11.6-3.3,24.8-6.6,36.3
	c-8.3,47.9-14.9,95.7-19.8,140.3c-1.7,11.6-3.3,28.1-5,44.6c-1.7,16.5-3.3,33-3.3,44.6c0,14.9-1.7,31.4,0,46.2
	c0,8.3,0,14.9,1.7,23.1v6.6c0,1.7,0,3.3,1.7,5c0,0,0,1.7,1.7,1.7h3.3l1.7-1.7c1.7-1.7,1.7-3.3,3.3-3.3v-1.7c1.7-3.3,3.3-6.6,5-11.6
	c3.3-8.3,6.6-14.9,8.3-23.1c5-14.9,11.6-31.4,16.5-47.9l34.7-97.4c11.6-33,24.8-66,39.6-97.4c14.9-33,29.7-64.4,46.2-95.7
	s34.7-62.7,56.1-92.4c9.9-14.9,19.8-29.7,31.4-44.6l16.5-21.5l8.3-9.9l5-5l5-5l1.7-1.7l1.7-1.7c0-1.7,1.7-1.7,1.7-1.7l5-5
	c3.3-3.3,6.6-6.6,9.9-8.3c1.7-1.7,3.3-3.3,6.6-5c1.7-1.7,5-3.3,6.6-3.3c0,0,1.7,0,1.7-1.7c0,0,1.7,0,1.7-1.7l1.7-1.7h14.9
	c5,0,9.9,0,13.2,1.7c5,1.7,9.9,3.3,13.2,6.6l3.3,1.7l1.7,1.7l1.7,1.7l1.7,1.7l1.7,1.7l1.7,1.7v3.3l1.7,1.7c0,0,0,1.7,1.7,1.7
	c3.3,5,3.3,9.9,5,14.9v6.6c0,0,0,5,1.7,6.6c1.7,8.3,1.7,16.5,1.7,24.8v23.1c-1.7,14.9-3.3,29.7-5,42.9l-6.6,42.9
	c-1.7,6.6-3.3,14.9-3.3,21.5l-3.3,19.8c-5,24.8-8.3,47.9-11.6,72.6v-1.7c1.7-14.9,3.3-28.1,6.6-41.3c-3.3,16.5-5,34.7-6.6,51.2
	l1.7-9.9c-3.3,19.8-5,39.6-6.6,59.4c-5,39.6-6.6,72.6-8.3,84.2c-5,33-8.3,72.6-9.9,117.2c-1.7,23.1-1.7,46.2,0,71
	c0,24.8,3.3,51.2,6.6,79.2c-1.7,0,0,23.1,5,44.6c3.3,16.5,8.3,33,14.9,49.5c3.3,8.3,6.6,16.5,11.6,24.8l1.7,1.7l1.7,1.7l1.7,3.3
	c1.7,1.7,3.3,3.3,3.3,5l8.3,9.9c0,0,6.6,5,9.9,8.3l5,3.3l3.3,1.7c1.7,0,1.7,0,3.3,1.7c6.6,3.3,14.9,5,23.1,5h26.4
	c8.3-1.7,14.9-5,23.1-8.3l-3.3,1.7l-1.7,1.7H749l-3.3,1.7l-3.3,1.7h-3.3l-3.3,1.7l-3.3,1.7c-1.7,0-1.7,0-3.3,1.7h-14.9
	c-5,0-9.9,0-14.9-1.7c-5-1.7-5,0-1.7,0h24.8h-3.3h-16.5c-5,0-11.6-1.7-16.5-5c-5-1.7-9.9-5-14.9-9.9c-5-3.3-9.9-8.3-13.2-13.2
	c-8.3-9.9-14.9-21.5-19.8-34.7c-1.7-3.3-1.7-6.6-3.3-8.3c-1.7-3.3-1.7-6.6-3.3-8.3l-3.3-8.3c0-3.3-1.7-5-1.7-6.6h-1.7v1.7
	c5,16.5,9.9,29.7,16.5,42.9c6.6,13.2,13.2,24.8,23.1,33c5,5,9.9,8.3,14.9,11.6c5,3.3,11.6,5,18.2,6.6c6.6,1.7,13.2,1.7,21.5,1.7
	c6.6,0,14.9-1.7,23.1-5c8.3-1.7,14.9-5,21.5-8.3c3.3-1.7,6.6-3.3,8.3-3.3l3.3-1.7c1.7,0,3.3-1.7,3.3-1.7c1.7-1.7,5-3.3,6.6-3.3
	l3.3-1.7l3.3-1.7l5-3.3l3.3-1.7c1.7-1.7,5-1.7,5-3.3h1.7l-1.7,1.7c0,0-3.3,1.7-5,3.3c-9.9,6.6-18.2,13.2-29.7,18.2
	c-9.9,5-21.5,9.9-33,13.2s-24.8,5-36.3,3.3c-6.6,0-11.6-1.7-18.2-5c-5-1.7-11.6-5-16.5-9.9c-9.9-8.3-18.2-16.5-24.8-28.1
	c-3.3-5-6.6-11.6-8.3-16.5c-3.3-5-5-11.6-6.6-16.5c-1.7-5-3.3-11.6-6.6-18.2l-5-18.2c-3.3-9.9-5-21.5-6.6-31.4
	c1.7,9.9,1.7,13.2,3.3,16.5v3.3l-1.7-8.3c-1.7-8.3-3.3-14.9-3.3-23.1c0-9.9-1.7-14.9-1.7-23.1l-8.3-66v33c0,6.6,3.3,13.2,1.7,19.8
	c-5,26.4,11.6,77.6,13.2,104c-1.7-1.7-18.2-57.8-21.5-69.3c-5-18.2-9.9-79.2-6.6-36.3l1.7,47.9c3.3,16.5,6.6,34.7,11.6,51.2
	c0,1.7,0,1.7,1.7,3.3c6.6,14.9,9.9,26.4,11.6,29.7c5,8.3,11.6,19.8,13.2,24.8c11.6,18.2,6.6,13.2-5-5c0,0,0-1.7-1.7-1.7
	c0,0,0,1.7,1.7,1.7c5,8.3,9.9,18.2,16.5,24.8l3.3,3.3l3.3,3.3l1.7,1.7l1.7,1.7l3.3,3.3l3.3,3.3l1.7,1.7l1.7,1.7l3.3,3.3l3.3,1.7
	c5,3.3,9.9,6.6,14.9,8.3l8.3,3.3c1.7,0,3.3,0,3.3,1.7h3.3c1.7,0,3.3,1.7,6.6,1.7h26.4c3.3,0,6.6,0,8.3-1.7c3.3,0,5,0,6.6-1.7
	c3.3,0,6.6-1.7,8.3-1.7s23.1-6.6,44.6-19.8c28.1-16.5,59.4-41.3,80.9-61.1C887.7,790.6,887.7,789,905.8,774.1L905.8,774.1z
	 M1077.5,143.6c-1.7,3.3-1.7,5-1.7,8.3c0,3.3,1.7,6.6,1.7,9.9s0,5-1.7,6.6c-1.7,1.7-5,3.3-9.9,3.3c-3.3,0-6.6,0-9.9-1.7
	c-3.3-1.7-6.6-3.3-8.3-3.3v-1.7c0,0,0-1.7-1.7-1.7c-3.3-1.7-6.6-5-8.3-9.9l-5-13.2c-1.7-1.7-1.7-5-1.7-6.6c0-3.3,0-5-1.7-8.3h11.6
	c3.3,0,5,0,8.3-1.7l6.6-1.7l6.6-1.7l5,5c1.7,1.7,3.3,3.3,3.3,5c1.7,1.7,1.7,3.3,1.7,6.6C1074.2,138.6,1074.2,140.3,1077.5,143.6
	L1077.5,143.6z"/>
</svg>
