<?xml version="1.0" encoding="utf-8"?>
<!-- Generator: Adobe Illustrator 19.2.1, SVG Export Plug-In . SVG Version: 6.00 Build 0)  -->
<!DOCTYPE svg PUBLIC "-//W3C//DTD SVG 1.1//EN" "http://www.w3.org/Graphics/SVG/1.1/DTD/svg11.dtd">
<svg version="1.1" id="Layer_1" xmlns="http://www.w3.org/2000/svg" xmlns:xlink="http://www.w3.org/1999/xlink" x="0px" y="0px"
	 width="465.3px" height="463.3px" viewBox="0 0 465.3 463.3" style="enable-background:new 0 0 465.3 463.3;" xml:space="preserve"
	>
<style type="text/css">
	.st0{fill:#333333;}
</style>
<path class="st0" d="M233.5,0c68.3,0,136.6-0.1,204.9,0.1c5,0,10.3,0.9,14.9,2.8c7.5,3.1,10.9,9.8,11.8,17.6
	c0.3,2.3,0.1,4.6,0.1,6.9c0,136,0.1,272,0,408c0,5-0.6,10.4-2.4,15c-3.2,8.1-10.2,12-18.8,12.8c-2,0.2-4,0.1-6,0.1
	c-136.9,0-273.7,0-410.6-0.1c-5,0-10.4-0.8-15-2.6c-7.8-3.2-11.5-10-12.3-18.2c-0.2-2.5-0.1-5.1-0.1-7.7L0.1,28.4
	c0-2.6-0.1-5.2,0.1-7.7C1.1,9.6,9.8,1,20.9,0.2c2.9-0.2,5.7-0.1,8.6-0.1C97.5,0,165.5,0,233.5,0L233.5,0z M82.8,332.8
	C82.3,332.5,81.9,332.3,82.8,332.8C81.8,332.5,82.3,332.6,82.8,332.8c1.5,1.2,2.8,2.8,4.5,3.7c37.4,20.4,77.5,27.6,119.5,21.2
	c46.7-7.1,85.3-28.9,114.5-66.3c25.3-32.5,39.5-69.1,40.5-110.5c0.1-4.5,0-9.1,0-12.9c11-10.3,22.2-19.1,30.6-32.2
	c-11.8,3-21.9,5.5-32,8c1.1-2.9,2.8-4.2,4.5-5.7c8.6-8,17-16.2,19.3-28.5l0.4-0.3l-0.3,0.4c-4.5,1.9-8.8,4.1-13.4,5.8
	c-8.3,3-16.6,5.7-24.5,8.4c-3.8-2.9-6.5-4.9-9.3-7c-33.4-25.5-79.9-14.5-98.3,23.3c-5.6,11.4-6.8,23.5-6,35.9c0.1,2.1,0,4.2,0,6.8
	c-54.3-3.6-97.7-26.8-133.9-67.4c-15,34.4-7.8,61.9,19.2,85.3l-1.2,1.5c-8.7-2.2-17.3-4.4-26.6-6.8c2.5,31.8,19.2,52.1,49.6,61.9
	c-0.2,0.6-0.4,1.3-0.5,1.9l-24.6,1.8c6.4,22.5,21.4,33.8,58.4,44.5c-0.6,0.9-1.9,1-2.8,1.7c-13,9.1-27,16.1-42.4,20.3
	C113.1,331.7,98,333,82.8,332.8L82.8,332.8z"/>
</svg>
